<mxfile host="app.diagrams.net" agent="Mozilla/5.0 (X11; Linux x86_64; rv:136.0) Gecko/20100101 Firefox/136.0" version="26.1.1">
  <diagram name="第 1 页" id="LyThNroiJTEBUdqNrZ97">
    <mxGraphModel dx="1410" dy="763" grid="1" gridSize="10" guides="1" tooltips="1" connect="1" arrows="1" fold="1" page="1" pageScale="1" pageWidth="827" pageHeight="1169" math="0" shadow="0">
      <root>
        <mxCell id="0" />
        <mxCell id="1" parent="0" />
        <mxCell id="mhN7xVSAiQ1cdXxRnYHf-1" value="" style="rounded=0;whiteSpace=wrap;html=1;" vertex="1" parent="1">
          <mxGeometry x="140" y="110" width="460" height="320" as="geometry" />
        </mxCell>
        <mxCell id="mhN7xVSAiQ1cdXxRnYHf-2" value="" style="sketch=0;shadow=0;dashed=0;html=1;strokeColor=#82b366;labelPosition=center;verticalLabelPosition=bottom;verticalAlign=top;outlineConnect=0;align=center;shape=mxgraph.office.databases.database;fillColor=#d5e8d4;" vertex="1" parent="1">
          <mxGeometry x="450" y="151" width="70" height="49" as="geometry" />
        </mxCell>
        <mxCell id="mhN7xVSAiQ1cdXxRnYHf-3" style="edgeStyle=orthogonalEdgeStyle;rounded=0;orthogonalLoop=1;jettySize=auto;html=1;exitX=1;exitY=0.5;exitDx=0;exitDy=0;entryX=0;entryY=0.5;entryDx=0;entryDy=0;" edge="1" parent="1" source="mhN7xVSAiQ1cdXxRnYHf-4" target="mhN7xVSAiQ1cdXxRnYHf-27">
          <mxGeometry relative="1" as="geometry" />
        </mxCell>
        <mxCell id="mhN7xVSAiQ1cdXxRnYHf-4" value="&lt;b&gt;LLM&lt;/b&gt;" style="rounded=1;whiteSpace=wrap;html=1;fillColor=#e1d5e7;strokeColor=#9673a6;" vertex="1" parent="1">
          <mxGeometry x="390" y="356.5" width="60" height="61" as="geometry" />
        </mxCell>
        <mxCell id="mhN7xVSAiQ1cdXxRnYHf-5" value="" style="group" vertex="1" connectable="0" parent="1">
          <mxGeometry x="190" y="140" width="60" height="71" as="geometry" />
        </mxCell>
        <mxCell id="mhN7xVSAiQ1cdXxRnYHf-6" value="" style="rounded=0;whiteSpace=wrap;html=1;" vertex="1" parent="mhN7xVSAiQ1cdXxRnYHf-5">
          <mxGeometry width="40" height="51" as="geometry" />
        </mxCell>
        <mxCell id="mhN7xVSAiQ1cdXxRnYHf-7" value="" style="rounded=0;whiteSpace=wrap;html=1;" vertex="1" parent="mhN7xVSAiQ1cdXxRnYHf-5">
          <mxGeometry x="10" y="10" width="40" height="51" as="geometry" />
        </mxCell>
        <mxCell id="mhN7xVSAiQ1cdXxRnYHf-8" value="&lt;b&gt;多模态数据&lt;/b&gt;" style="rounded=0;whiteSpace=wrap;html=1;" vertex="1" parent="mhN7xVSAiQ1cdXxRnYHf-5">
          <mxGeometry x="20" y="20" width="40" height="51" as="geometry" />
        </mxCell>
        <mxCell id="mhN7xVSAiQ1cdXxRnYHf-9" value="" style="endArrow=classic;html=1;rounded=0;" edge="1" parent="1">
          <mxGeometry width="50" height="50" relative="1" as="geometry">
            <mxPoint x="264" y="180" as="sourcePoint" />
            <mxPoint x="430" y="180" as="targetPoint" />
          </mxGeometry>
        </mxCell>
        <mxCell id="mhN7xVSAiQ1cdXxRnYHf-10" value="&lt;b&gt;&lt;i&gt;数据预处理&lt;/i&gt;&lt;/b&gt;" style="text;html=1;align=center;verticalAlign=middle;whiteSpace=wrap;rounded=0;" vertex="1" parent="1">
          <mxGeometry x="280" y="140" width="60" height="30" as="geometry" />
        </mxCell>
        <mxCell id="mhN7xVSAiQ1cdXxRnYHf-11" value="&lt;b&gt;&lt;i&gt;编码成向量嵌入&lt;/i&gt;&lt;/b&gt;" style="text;html=1;align=center;verticalAlign=middle;whiteSpace=wrap;rounded=0;" vertex="1" parent="1">
          <mxGeometry x="360" y="140" width="60" height="30" as="geometry" />
        </mxCell>
        <mxCell id="mhN7xVSAiQ1cdXxRnYHf-12" style="edgeStyle=orthogonalEdgeStyle;rounded=0;orthogonalLoop=1;jettySize=auto;html=1;exitX=0.5;exitY=0;exitDx=0;exitDy=0;entryX=0.5;entryY=1;entryDx=0;entryDy=0;curved=1;fillColor=#d5e8d4;strokeColor=#82b366;" edge="1" parent="1" source="mhN7xVSAiQ1cdXxRnYHf-13" target="mhN7xVSAiQ1cdXxRnYHf-16">
          <mxGeometry relative="1" as="geometry" />
        </mxCell>
        <mxCell id="mhN7xVSAiQ1cdXxRnYHf-13" value="&lt;b&gt;Input&lt;/b&gt;" style="rounded=0;whiteSpace=wrap;html=1;fillColor=#dae8fc;strokeColor=#6c8ebf;" vertex="1" parent="1">
          <mxGeometry x="180" y="367" width="50" height="30" as="geometry" />
        </mxCell>
        <mxCell id="mhN7xVSAiQ1cdXxRnYHf-14" style="edgeStyle=orthogonalEdgeStyle;rounded=0;orthogonalLoop=1;jettySize=auto;html=1;exitX=0.75;exitY=0;exitDx=0;exitDy=0;entryX=0.5;entryY=1;entryDx=0;entryDy=0;curved=1;fillColor=#d5e8d4;strokeColor=#82b366;" edge="1" parent="1" source="mhN7xVSAiQ1cdXxRnYHf-16" target="mhN7xVSAiQ1cdXxRnYHf-18">
          <mxGeometry relative="1" as="geometry" />
        </mxCell>
        <mxCell id="mhN7xVSAiQ1cdXxRnYHf-15" style="edgeStyle=orthogonalEdgeStyle;rounded=0;orthogonalLoop=1;jettySize=auto;html=1;exitX=0.662;exitY=0.977;exitDx=0;exitDy=0;curved=1;exitPerimeter=0;fillColor=#fff2cc;strokeColor=#d6b656;" edge="1" parent="1" source="mhN7xVSAiQ1cdXxRnYHf-16">
          <mxGeometry relative="1" as="geometry">
            <mxPoint x="320" y="350" as="targetPoint" />
          </mxGeometry>
        </mxCell>
        <mxCell id="mhN7xVSAiQ1cdXxRnYHf-16" value="&lt;b&gt;Retriever&lt;/b&gt;" style="rounded=1;whiteSpace=wrap;html=1;fillColor=#f8cecc;strokeColor=#b85450;" vertex="1" parent="1">
          <mxGeometry x="240" y="250" width="90" height="40" as="geometry" />
        </mxCell>
        <mxCell id="mhN7xVSAiQ1cdXxRnYHf-17" style="edgeStyle=orthogonalEdgeStyle;rounded=0;orthogonalLoop=1;jettySize=auto;html=1;exitX=0.75;exitY=1;exitDx=0;exitDy=0;entryX=1;entryY=0.5;entryDx=0;entryDy=0;curved=1;fillColor=#d5e8d4;strokeColor=#82b366;" edge="1" parent="1" source="mhN7xVSAiQ1cdXxRnYHf-18" target="mhN7xVSAiQ1cdXxRnYHf-16">
          <mxGeometry relative="1" as="geometry" />
        </mxCell>
        <mxCell id="mhN7xVSAiQ1cdXxRnYHf-18" value="&lt;b&gt;Vector Database&lt;/b&gt;" style="text;html=1;align=center;verticalAlign=middle;whiteSpace=wrap;rounded=0;" vertex="1" parent="1">
          <mxGeometry x="455" y="170" width="60" height="30" as="geometry" />
        </mxCell>
        <mxCell id="mhN7xVSAiQ1cdXxRnYHf-19" value="" style="endArrow=none;dashed=1;html=1;dashPattern=1 3;strokeWidth=3;rounded=0;exitX=0;exitY=0.375;exitDx=0;exitDy=0;exitPerimeter=0;entryX=1.001;entryY=0.374;entryDx=0;entryDy=0;entryPerimeter=0;" edge="1" parent="1" source="mhN7xVSAiQ1cdXxRnYHf-1" target="mhN7xVSAiQ1cdXxRnYHf-1">
          <mxGeometry width="50" height="50" relative="1" as="geometry">
            <mxPoint x="160" y="230" as="sourcePoint" />
            <mxPoint x="550" y="230" as="targetPoint" />
          </mxGeometry>
        </mxCell>
        <mxCell id="mhN7xVSAiQ1cdXxRnYHf-20" value="" style="endArrow=none;dashed=1;html=1;dashPattern=1 3;strokeWidth=3;rounded=0;entryX=0.999;entryY=0.626;entryDx=0;entryDy=0;entryPerimeter=0;exitX=0;exitY=0.625;exitDx=0;exitDy=0;exitPerimeter=0;" edge="1" parent="1" source="mhN7xVSAiQ1cdXxRnYHf-1" target="mhN7xVSAiQ1cdXxRnYHf-1">
          <mxGeometry width="50" height="50" relative="1" as="geometry">
            <mxPoint x="160" y="310" as="sourcePoint" />
            <mxPoint x="550" y="310" as="targetPoint" />
          </mxGeometry>
        </mxCell>
        <mxCell id="mhN7xVSAiQ1cdXxRnYHf-21" value="" style="rounded=0;whiteSpace=wrap;html=1;fillColor=#d5e8d4;strokeColor=#82b366;" vertex="1" parent="1">
          <mxGeometry x="414" y="270" width="40" height="21" as="geometry" />
        </mxCell>
        <mxCell id="mhN7xVSAiQ1cdXxRnYHf-22" value="" style="rounded=0;whiteSpace=wrap;html=1;fillColor=#d5e8d4;strokeColor=#82b366;" vertex="1" parent="1">
          <mxGeometry x="418" y="273.5" width="40" height="21" as="geometry" />
        </mxCell>
        <mxCell id="mhN7xVSAiQ1cdXxRnYHf-23" value="&lt;b&gt;Input&lt;/b&gt;" style="rounded=0;whiteSpace=wrap;html=1;fillColor=#dae8fc;strokeColor=#6c8ebf;" vertex="1" parent="1">
          <mxGeometry x="295" y="386.5" width="50" height="30" as="geometry" />
        </mxCell>
        <mxCell id="mhN7xVSAiQ1cdXxRnYHf-24" value="" style="rounded=0;whiteSpace=wrap;html=1;fillColor=#fff2cc;strokeColor=#d6b656;" vertex="1" parent="1">
          <mxGeometry x="298" y="356.5" width="40" height="21" as="geometry" />
        </mxCell>
        <mxCell id="mhN7xVSAiQ1cdXxRnYHf-25" value="" style="rounded=0;whiteSpace=wrap;html=1;fillColor=#fff2cc;strokeColor=#d6b656;" vertex="1" parent="1">
          <mxGeometry x="302" y="360" width="40" height="21" as="geometry" />
        </mxCell>
        <mxCell id="mhN7xVSAiQ1cdXxRnYHf-26" value="" style="endArrow=classic;html=1;rounded=0;" edge="1" parent="1">
          <mxGeometry width="50" height="50" relative="1" as="geometry">
            <mxPoint x="350" y="386.5" as="sourcePoint" />
            <mxPoint x="390" y="386.5" as="targetPoint" />
          </mxGeometry>
        </mxCell>
        <mxCell id="mhN7xVSAiQ1cdXxRnYHf-27" value="&lt;b&gt;Response&lt;/b&gt;" style="rounded=0;whiteSpace=wrap;html=1;" vertex="1" parent="1">
          <mxGeometry x="520" y="377" width="70" height="20" as="geometry" />
        </mxCell>
        <mxCell id="mhN7xVSAiQ1cdXxRnYHf-28" value="&lt;b&gt;&lt;i&gt;&lt;font color=&quot;#97d077&quot;&gt;Fetch&lt;/font&gt;&lt;/i&gt;&lt;/b&gt;" style="text;html=1;align=center;verticalAlign=middle;whiteSpace=wrap;rounded=0;" vertex="1" parent="1">
          <mxGeometry x="354" y="200" width="60" height="30" as="geometry" />
        </mxCell>
        <mxCell id="mhN7xVSAiQ1cdXxRnYHf-29" value="&lt;b&gt;&lt;i&gt;&lt;font color=&quot;#97d077&quot;&gt;Request&lt;/font&gt;&lt;/i&gt;&lt;/b&gt;" style="text;html=1;align=center;verticalAlign=middle;whiteSpace=wrap;rounded=0;" vertex="1" parent="1">
          <mxGeometry x="160" y="310" width="60" height="30" as="geometry" />
        </mxCell>
        <mxCell id="mhN7xVSAiQ1cdXxRnYHf-30" value="&lt;b&gt;&lt;i&gt;Generate&lt;/i&gt;&lt;/b&gt;" style="text;html=1;align=center;verticalAlign=middle;whiteSpace=wrap;rounded=0;" vertex="1" parent="1">
          <mxGeometry x="454" y="356.5" width="60" height="30" as="geometry" />
        </mxCell>
        <mxCell id="mhN7xVSAiQ1cdXxRnYHf-31" value="&lt;font color=&quot;#ffd966&quot;&gt;&lt;b&gt;Return related Text&lt;/b&gt;&lt;/font&gt;" style="text;html=1;align=center;verticalAlign=middle;whiteSpace=wrap;rounded=0;" vertex="1" parent="1">
          <mxGeometry x="310" y="320" width="140" height="30" as="geometry" />
        </mxCell>
        <mxCell id="mhN7xVSAiQ1cdXxRnYHf-32" value="&lt;b&gt;&lt;i&gt;编码嵌入&lt;/i&gt;&lt;/b&gt;" style="text;html=1;align=center;verticalAlign=middle;whiteSpace=wrap;rounded=0;" vertex="1" parent="1">
          <mxGeometry x="540" y="110" width="60" height="30" as="geometry" />
        </mxCell>
        <mxCell id="mhN7xVSAiQ1cdXxRnYHf-33" value="&lt;b&gt;&lt;i&gt;&lt;font style=&quot;font-size: 16px;&quot;&gt;Retrieval&lt;/font&gt;&lt;/i&gt;&lt;/b&gt;" style="text;html=1;align=center;verticalAlign=middle;whiteSpace=wrap;rounded=0;" vertex="1" parent="1">
          <mxGeometry x="530" y="230" width="60" height="30" as="geometry" />
        </mxCell>
        <mxCell id="mhN7xVSAiQ1cdXxRnYHf-34" value="&lt;b&gt;&lt;i&gt;&lt;font style=&quot;font-size: 16px;&quot;&gt;Generation&lt;/font&gt;&lt;/i&gt;&lt;/b&gt;" style="text;html=1;align=center;verticalAlign=middle;whiteSpace=wrap;rounded=0;" vertex="1" parent="1">
          <mxGeometry x="520" y="310" width="70" height="30" as="geometry" />
        </mxCell>
      </root>
    </mxGraphModel>
  </diagram>
</mxfile>
